# File created by Blade
# Date/Time:  Tue Jan 27 17:21:46 2015
#---------------------------------------------------------
:version 1.10
:name HOM
:units
  mass 1.0
  length 1.000000
  angle deg
:documentation
     Acclaim Skeleton File
:root
   axis xyz
   order TX TY TZ RX RY RZ
   position 0.000000 0.000000 0.000000
   orientation 0 0 0
:bonedata
   begin
      id 1
      name Spine_dum
      direction 0.000000 1.000000 0.000000
      length 7.539951
      axis 0.0 0.0 0.0 xyz
   end
   begin
      id 2
      name LeftUpLeg_dum
      direction 1.000000 0.000000 0.000000
      length 3.345476
      axis 0.0 0.0 0.0 xyz
   end
   begin
      id 3
      name RightUpLeg_dum
      direction -1.000000 0.000000 0.000000
      length 3.345476
      axis 0.0 0.0 0.0 xyz
   end
   begin
      id 4
      name Spine
      direction 0.000000 1.000000 0.000000
      length 0.000000
      axis 0.0 0.0 0.0 xyz
      dof rx ry rz
   end
   begin
      id 5
      name Spine_dum1
      direction 0.000000 1.000000 0.000000
      length 15.093809
      axis 0.0 0.0 0.0 xyz
   end
   begin
      id 6
      name Spine_dum2
      direction 0.000000 1.000000 0.000000
      length 9.738928
      axis 0.0 0.0 0.0 xyz
   end
   begin
      id 7
      name Spine_dum3
      direction 0.000000 1.000000 0.000000
      length 9.738928
      axis 0.0 0.0 0.0 xyz
   end
   begin
      id 8
      name Head
      direction 0.000000 1.000000 0.000000
      length 4.527550
      axis 0.0 0.0 0.0 xyz
      dof rx ry rz
   end
   begin
      id 9
      name LeftShoulder
      direction 1.000000 0.000000 0.000000
      length 7.084015
      axis 0.0 0.0 -90.0 xyz
      dof rx ry rz
   end
   begin
      id 10
      name LeftArm
      direction 1.000000 0.000000 0.000000
      length 10.259319
      axis 0.0 0.0 -90.0 xyz
      dof rx ry rz
   end
   begin
      id 11
      name LeftForeArm
      direction 1.000000 0.000000 0.000000
      length 9.896984
      axis 0.0 0.0 -90.0 xyz
      dof ry rz rx
   end
   begin
      id 12
      name LeftHand
      direction 0.000000 0.000000 0.000000
      length 0.000000
      axis 0.0 0.0 -90.0 xyz
      dof rx ry rz
   end
   begin
      id 13
      name LeftHand_dum1
      direction 0.000000 0.000000 0.000000
      length 0.000000
      axis 0.0 0.0 -90.0 xyz
   end
   begin
      id 14
      name LeftHand_dum2
      direction 1.000000 0.000000 0.000000
      length 3.937000
      axis 0.0 0.0 -90.0 xyz
   end
   begin
      id 15
      name LeftHandThumb1
      direction 0.000000 0.000000 1.000000
      length 3.937000
      axis 0.0 0.0 -90.0 xyz
      dof rx rz ry
   end
   begin
      id 16
      name RightShoulder
      direction -1.000000 0.000000 0.000000
      length 7.084015
      axis 0.0 0.0 90.0 xyz
      dof rx ry rz
   end
   begin
      id 17
      name RightArm
      direction -1.000000 0.000000 0.000000
      length 10.259319
      axis 0.0 0.0 90.0 xyz
      dof rx ry rz
   end
   begin
      id 18
      name RightForeArm
      direction -1.000000 0.000000 0.000000
      length 9.896984
      axis 0.0 0.0 90.0 xyz
      dof ry rz rx
   end
   begin
      id 19
      name RightHand
      direction 0.000000 0.000000 0.000000
      length 0.000000
      axis 0.0 0.0 90.0 xyz
      dof rx ry rz
   end
   begin
      id 20
      name RightHand_dum1
      direction 0.000000 0.000000 0.000000
      length 0.000000
      axis 0.0 0.0 90.0 xyz
   end
   begin
      id 21
      name RightHand_dum2
      direction -1.000000 0.000000 0.000000
      length 3.937000
      axis 0.0 0.0 90.0 xyz
   end
   begin
      id 22
      name RightHandThumb1
      direction 0.000000 0.000000 1.000000
      length 3.937000
      axis 0.0 0.0 90.0 xyz
      dof rx rz ry
   end
   begin
      id 23
      name LeftUpLeg
      direction 0.000000 -1.000000 0.000000
      length 19.114733
      axis 0.0 0.0 0.0 xyz
      dof rx ry rz
   end
   begin
      id 24
      name LeftLeg
      direction 0.000000 -1.000000 0.000000
      length 16.045604
      axis 0.0 0.0 0.0 xyz
      dof rx ry rz
   end
   begin
      id 25
      name LeftFoot
      direction 0.000000 -0.258819 0.965926
      length 5.543155
      axis 15.0 0.0 0.0 xyz
      dof rx ry rz
   end
   begin
      id 26
      name LeftToeBase
      direction 0.000000 0.000000 1.000000
      length 2.952750
      axis 0.0 0.0 0.0 xyz
      dof rx ry rz
   end
   begin
      id 27
      name RightUpLeg
      direction 0.000000 -1.000000 0.000000
      length 19.114733
      axis 0.0 0.0 0.0 xyz
      dof rx ry rz
   end
   begin
      id 28
      name RightLeg
      direction 0.000000 -1.000000 0.000000
      length 16.045604
      axis 0.0 0.0 0.0 xyz
      dof rx ry rz
   end
   begin
      id 29
      name RightFoot
      direction 0.000000 -0.258819 0.965926
      length 5.543155
      axis 15.0 0.0 0.0 xyz
      dof rx ry rz
   end
   begin
      id 30
      name RightToeBase
      direction 0.000000 0.000000 1.000000
      length 2.952750
      axis 0.0 0.0 0.0 xyz
      dof rx ry rz
   end
:hierarchy
   begin
      root Spine_dum LeftUpLeg_dum RightUpLeg_dum
      Spine_dum Spine
      LeftUpLeg_dum LeftUpLeg
      RightUpLeg_dum RightUpLeg
      Spine Spine_dum1 Spine_dum2 Spine_dum3
      Spine_dum1 Head
      Spine_dum2 LeftShoulder
      Spine_dum3 RightShoulder
      LeftShoulder LeftArm
      LeftArm LeftForeArm
      LeftForeArm LeftHand
      LeftHand LeftHand_dum1 LeftHand_dum2
      LeftHand_dum1 LeftHandThumb1
      RightShoulder RightArm
      RightArm RightForeArm
      RightForeArm RightHand
      RightHand RightHand_dum1 RightHand_dum2
      RightHand_dum1 RightHandThumb1
      LeftUpLeg LeftLeg
      LeftLeg LeftFoot
      LeftFoot LeftToeBase
      RightUpLeg RightLeg
      RightLeg RightFoot
      RightFoot RightToeBase
   end

# File created by Blade
# Date/Time:  Tue Jan 27 17:21:37 2015
# Frame Rate: 120.000 fps
#------------------------------------------------------
:FULLY-SPECIFIED
:DEGREES
1295
root -3.381644 36.799131 -1.525261 12.180845 0.756723 2.416112
Spine -6.851047 5.377037 -7.174972
Head 4.432308 -2.830748 9.364625
LeftShoulder -3.974363 -10.839077 13.240596
LeftArm -6.118450 -28.608439 -37.736115
LeftForeArm 4.218674 -0.000000 71.450329
LeftHand -17.534555 -0.000000 41.649557
LeftHandThumb1 -26.253704 0.000000 33.147579
RightShoulder -10.269665 -16.578246 4.373866
RightArm 9.959269 -6.286998 47.401345
RightForeArm 175.236126 -0.000000 34.614889
RightHand 1.229052 -0.000000 -3.946376
RightHandThumb1 -24.326973 -0.000000 -32.862282
LeftUpLeg -65.671887 8.875982 4.629472
LeftLeg 141.414229 -0.000000 -0.000000
LeftFoot 32.262183 -11.025725 -26.491873
LeftToeBase 20.443251 -0.000000 -0.000000
RightUpLeg -20.740764 -19.147682 10.955632
RightLeg 16.901042 -0.000000 -0.000000
RightFoot -15.829284 -6.452158 -2.118868
RightToeBase 5.744256 -0.000000 -0.000000
1296
root -3.384709 36.824119 -1.527388 12.241419 0.819814 2.605501
Spine -6.909902 5.328781 -7.493194
Head 4.625694 -2.822827 9.531563
LeftShoulder -3.960905 -10.761322 13.365198
LeftArm -5.953549 -28.510733 -37.850573
LeftForeArm 4.335485 -0.000000 71.451713
LeftHand -17.659127 -0.000000 41.611850
LeftHandThumb1 -26.253704 0.000000 33.147579
RightShoulder -10.306555 -16.642932 4.464480
RightArm 10.134299 -6.761277 47.519417
RightForeArm 174.924431 -0.000000 34.663139
RightHand 1.291584 -0.000000 -4.258282
RightHandThumb1 -24.326973 -0.000000 -32.862282
LeftUpLeg -65.957300 8.917105 4.692697
LeftLeg 140.806364 -0.000000 -0.000000
LeftFoot 32.405732 -13.633299 -26.942275
LeftToeBase 18.655939 -0.000000 -0.000000
RightUpLeg -20.699433 -19.260489 10.816424
RightLeg 16.636858 -0.000000 -0.000000
RightFoot -15.659888 -6.420328 -2.170338
RightToeBase 5.741098 -0.000000 -0.000000
1297
root -3.390385 36.845329 -1.526146 12.272401 0.844173 2.748939
Spine -6.937828 5.293658 -7.722891
Head 4.821805 -2.760604 9.653632
LeftShoulder -3.964187 -10.717220 13.427514
LeftArm -5.862897 -28.363737 -37.858330
LeftForeArm 4.306041 -0.000000 71.440109
LeftHand -17.654418 0.000000 41.631626
LeftHandThumb1 -26.253704 0.000000 33.147579
RightShoulder -10.357484 -16.689608 4.494608
RightArm 10.352757 -7.280670 47.622999
RightForeArm 174.513434 -0.000000 34.731725
RightHand 1.430289 -0.000000 -4.601318
RightHandThumb1 -24.326973 -0.000000 -32.862282
LeftUpLeg -66.186318 9.054167 4.675899
LeftLeg 140.029773 -0.000000 -0.000000
LeftFoot 31.716150 -15.106637 -27.644386
LeftToeBase 17.847800 -0.000000 -0.000000
RightUpLeg -20.610083 -19.316755 10.701123
RightLeg 16.362824 -0.000000 -0.000000
RightFoot -15.492224 -6.407052 -2.213876
RightToeBase 5.680240 -0.000000 -0.000000
1298
root -3.395228 36.865678 -1.522039 12.286765 0.867458 2.878660
Spine -6.965018 5.232408 -7.921833
Head 5.020416 -2.616697 9.768270
LeftShoulder -4.002882 -10.675750 13.454757
LeftArm -5.770272 -28.192606 -37.822987
LeftForeArm 4.237338 -0.000000 71.436132
LeftHand -17.619991 -0.000000 41.555884
LeftHandThumb1 -26.253704 0.000000 33.147579
RightShoulder -10.383855 -16.736506 4.549552
RightArm 10.540129 -7.803520 47.634985
RightForeArm 174.121691 -0.000000 34.846466
RightHand 1.462569 -0.000000 -4.977615
RightHandThumb1 -24.326973 -0.000000 -32.862282
LeftUpLeg -66.394693 9.281019 4.490374
LeftLeg 139.101090 -0.000000 -0.000000
LeftFoot 30.037693 -15.351625 -27.981672
LeftToeBase 18.418987 -0.000000 -0.000000
RightUpLeg -20.484703 -19.316957 10.576173
RightLeg 16.070025 -0.000000 -0.000000
RightFoot -15.315351 -6.450690 -2.251599
RightToeBase 5.609625 -0.000000 -0.000000
